<?xml version="1.0" encoding="utf-8"?>
<!-- Generator: Adobe Illustrator 16.0.0, SVG Export Plug-In . SVG Version: 6.00 Build 0)  -->
<!DOCTYPE svg PUBLIC "-//W3C//DTD SVG 1.1//EN" "http://www.w3.org/Graphics/SVG/1.1/DTD/svg11.dtd">
<svg version="1.1" id="Layer_1" xmlns="http://www.w3.org/2000/svg" xmlns:xlink="http://www.w3.org/1999/xlink" x="0px" y="0px"
	 width="500px" height="500px" viewBox="0 0 500 500" enable-background="new 0 0 500 500" xml:space="preserve">
<g>
	<path display="none" fill-rule="evenodd" clip-rule="evenodd" fill="#FFFFFF" d="M459.57,461.944c-139.466,0-279.249,0-419.141,0
		c0-141.17,0-282.338,0-423.889c139.425,0,278.958,0,419.141,0C459.57,179.097,459.57,320.521,459.57,461.944z M93.702,312.663
		c17.233,3.229,32.944,5.969,48.563,9.146c19.223,3.916,33.151,13.894,38.684,33.863c2.118,7.654,5.776,14.888,8.765,22.301
		c11.206,27.819,32.835,39.699,61.75,39.503c28.238-0.196,48.649-12.928,59.691-39.46c2.794-6.708,6.323-13.25,8.106-20.226
		c5.584-21.834,20.49-32.437,41.54-36.38c14.917-2.791,29.798-5.769,45.844-8.885c2.336-40.487-5.843-78.304-23.145-115.629
		c17.258-43.309,14.045-84.626-17.787-122.902c-21.574,13.801-42.818,27.394-63.161,40.409
		c-36.149-14.297-70.325-13.098-105.228-0.218c-20.565-13.376-41.118-26.743-61.93-40.28
		c-33.182,39.263-34.19,81.674-18.116,124.174C99.1,235.198,93.013,272.083,93.702,312.663z"/>
	<path fill-rule="evenodd" clip-rule="evenodd" fill="#FFFFFF" d="M93.702,312.663c-0.688-40.58,5.398-77.465,23.577-114.584
		c-16.074-42.5-15.066-84.911,18.116-124.174c20.812,13.537,41.365,26.904,61.93,40.28c34.903-12.88,69.079-14.079,105.228,0.218
		c20.343-13.016,41.587-26.608,63.161-40.409c31.832,38.276,35.045,79.594,17.787,122.902
		c17.302,37.325,25.48,75.142,23.145,115.629c-16.046,3.116-30.927,6.094-45.844,8.885c-21.05,3.943-35.956,14.546-41.54,36.38
		c-1.783,6.976-5.313,13.518-8.106,20.226c-11.042,26.532-31.453,39.264-59.691,39.46c-28.915,0.196-50.544-11.684-61.75-39.503
		c-2.989-7.413-6.647-14.646-8.765-22.301c-5.533-19.97-19.461-29.947-38.684-33.863
		C126.646,318.632,110.935,315.893,93.702,312.663z M304.477,143.67c-36.772-20.084-72.258-19.365-107.959-0.093
		c-17.82-11.256-35.37-22.344-53.562-33.835c-11.04,19.469-14.999,37.081-6.507,57.754c8.232-6.714,14.222-11.597,20.636-16.825
		c6.649,4.814,12.304,8.91,19.301,13.977c-38.35,34.5-55.319,76.67-56.163,125.941c11.488,2.941,21.41,5.292,31.217,8.034
		c24.419,6.84,43.265,19.569,51.416,45.442c4.061,12.888,14.223,33.219,17.621,40.208c3.398,6.993,4.912-10.38,7.255-15.329
		c15.305,0,30.84,0,45.146,0c2.793,5.736,4.612,21.589,7.519,15.426c2.905-6.158,12.375-25.246,15.902-36.882
		c8.846-29.176,30.141-43.303,57.729-50.559c8.929-2.351,17.979-4.233,26.979-6.333c-1.816-50.636-18.907-92.372-57.062-126.376
		c8.726-5.434,15.148-9.437,20.95-13.05c7.472,5.831,13.332,10.401,19.876,15.506c6.774-26.944,5.563-35.039-8.078-56.772
		C339.68,120.903,322.664,131.907,304.477,143.67z"/>
	<path display="none" fill-rule="evenodd" clip-rule="evenodd" fill="#FFFFFF" d="M304.477,143.67
		c18.188-11.763,35.203-22.767,52.215-33.766c13.641,21.733,14.853,29.828,8.078,56.772c-6.544-5.104-12.404-9.675-19.876-15.506
		c-5.802,3.613-12.225,7.616-20.95,13.05c38.154,34.004,55.245,75.74,57.062,126.376c-9,2.1-18.05,3.982-26.979,6.333
		c-27.588,7.256-48.883,21.383-57.729,50.559c-3.527,11.636-9.604,22.501-15.902,36.882c-3.145-6.452-4.726-9.689-7.519-15.426
		c-14.306,0-29.841,0-45.146,0c-2.343,4.949-3.982,8.411-7.255,15.329c-6.807-15.282-13.56-27.32-17.621-40.208
		c-8.151-25.873-26.997-38.603-51.416-45.442c-9.807-2.742-19.729-5.093-31.217-8.034c0.844-49.271,17.813-91.441,56.163-125.941
		c-6.997-5.066-12.652-9.162-19.301-13.977c-6.414,5.229-12.404,10.111-20.636,16.825c-8.492-20.673-4.533-38.285,6.507-57.754
		c18.192,11.491,35.742,22.579,53.562,33.835C232.219,124.305,267.704,123.586,304.477,143.67z M192.198,249.964
		c-9.972,11.987-7.777,22.087,1.214,30.421c8.299,7.685,17.921,9.153,27.543-0.581C211.387,269.872,201.985,260.118,192.198,249.964
		z M278.832,279.553c11.241,10.241,21.228,8.367,29.762-0.547c8.302-8.668,10.133-18.465,0.872-28.17
		C298.811,260.821,288.917,270.095,278.832,279.553z"/>
	<path fill-rule="evenodd" clip-rule="evenodd" fill="#FFFFFF" d="M192.198,249.964c9.787,10.154,19.188,19.908,28.758,29.84
		c-9.623,9.734-19.245,8.266-27.543,0.581C184.421,272.051,182.226,261.951,192.198,249.964z"/>
	<path fill-rule="evenodd" clip-rule="evenodd" fill="#FFFFFF" d="M278.832,279.553c10.085-9.458,19.979-18.731,30.634-28.717
		c9.261,9.705,7.43,19.502-0.872,28.17C300.06,287.92,290.073,289.794,278.832,279.553z"/>
</g>
</svg>
